# xmcd
#
# Track frame offsets: 
#        150
#        22730
#        41565
#        59962
#        81812
#        101805
#        123690
#        142497
#        161445
#        182440
#        208437
#        226942
#        247967
#        270160
#        291137
#        312395
#
# Disc length: 4477 seconds
#
# Revision: 16
# Processed by: cddbd v1.5.2PL0 Copyright (c) Steve Scherf et al.
# Submitted via: ExactAudioCopyFreeDBPlugin 1.0
#
DISCID=eb117b10
DTITLE=Celine Dion - Let's Talk About Love
DYEAR=1997
DGENRE=Pop
TTITLE0=The Reason
TTITLE1=Immortality [feat. the Bee Gees]
TTITLE2=Treat Her Like a Lady [feat. Diana King]
TTITLE3=Why Oh Why
TTITLE4=Love is on the Way
TTITLE5=Tell Him [duet with Barbra Streisand]
TTITLE6=Amar Haciendo el Amor
TTITLE7=When I Need You
TTITLE8=Miles to Go (Before I Sleep)
TTITLE9=Us
TTITLE10=Just a Little Bit of Love
TTITLE11=My Heart Will Go On
TTITLE12=Where is the Love
TTITLE13=Be the Man
TTITLE14=I Hate You Then I Love You [duet with Luciano Pavarotti]
TTITLE15=Let's Talk About Love
EXTD=YEAR: 1997
EXTT0=
EXTT1=
EXTT2=
EXTT3=
EXTT4=
EXTT5=
EXTT6=
EXTT7=
EXTT8=
EXTT9=
EXTT10=
EXTT11=
EXTT12=
EXTT13=
EXTT14=
EXTT15=
PLAYORDER=
